<svg width="23" height="16" viewBox="0 0 23 16" fill="none" xmlns="http://www.w3.org/2000/svg">
<path d="M22.3754 1.881C21.5509 2.2 20.6723 2.41144 19.7563 2.51411C20.6987 2.01789 21.4179 1.23811 21.756 0.298222C20.8774 0.760222 19.9074 1.08656 18.8736 1.26867C18.0394 0.485222 16.8504 0 15.5533 0C13.0367 0 11.0107 1.80156 11.0107 4.01011C11.0107 4.32789 11.0412 4.63344 11.1161 4.92433C7.33706 4.76178 3.9932 3.16433 1.74687 0.730889C1.3547 1.331 1.12466 2.01789 1.12466 2.75733C1.12466 4.14578 1.93534 5.37656 3.14373 6.08911C2.41343 6.07689 1.69698 5.88989 1.09002 5.59533C1.09002 5.60756 1.09002 5.62344 1.09002 5.63933C1.09002 7.58756 2.66564 9.20578 4.73182 9.57856C4.36182 9.66778 3.95856 9.71056 3.54006 9.71056C3.24905 9.71056 2.95526 9.69589 2.67949 9.64211C3.26845 11.2298 4.93968 12.397 6.92688 12.4349C5.38036 13.5019 3.41672 14.1448 1.29095 14.1448C0.918182 14.1448 0.560653 14.1301 0.203125 14.0898C2.21665 15.235 4.60294 15.8889 7.17632 15.8889C15.5408 15.8889 20.1139 9.77778 20.1139 4.48067C20.1139 4.30344 20.1069 4.13233 20.0972 3.96244C20.9994 3.39778 21.7574 2.69256 22.3754 1.881Z" fill="#1E2833"/>
</svg>
