<svg width="24" height="20" viewBox="0 0 24 20" fill="none" xmlns="http://www.w3.org/2000/svg">
<path fill-rule="evenodd" clip-rule="evenodd" d="M7.42323 0H15.9268C19.8399 0 23.0131 2.79875 23.0131 6.25V13.75C23.0131 17.2013 19.8399 20 15.9268 20H7.42323C3.51017 20 0.336914 17.2013 0.336914 13.75V6.25C0.336914 2.79875 3.51017 0 7.42323 0ZM15.9268 18.125C18.6621 18.125 20.8872 16.1625 20.8872 13.75V6.25C20.8872 3.8375 18.6621 1.875 15.9268 1.875H7.42323C4.68791 1.875 2.46281 3.8375 2.46281 6.25V13.75C2.46281 16.1625 4.68791 18.125 7.42323 18.125H15.9268Z" fill="#1E2833"/>
<path fill-rule="evenodd" clip-rule="evenodd" d="M6.00598 10C6.00598 7.23875 8.5443 5 11.675 5C14.8058 5 17.3441 7.23875 17.3441 10C17.3441 12.7613 14.8058 15 11.675 15C8.5443 15 6.00598 12.7613 6.00598 10ZM8.13188 10C8.13188 11.7225 9.72205 13.125 11.675 13.125C13.628 13.125 15.2182 11.7225 15.2182 10C15.2182 8.27625 13.628 6.875 11.675 6.875C9.72205 6.875 8.13188 8.27625 8.13188 10Z" fill="#1E2833"/>
<ellipse cx="17.7696" cy="4.62499" rx="0.755402" ry="0.66625" fill="#1E2833"/>
</svg>
