<svg width="25" height="25" viewBox="0 0 25 25" fill="none" xmlns="http://www.w3.org/2000/svg">
<path d="M22.3878 12.4836C22.3878 11.7144 21.7643 11.0909 20.9952 11.0909H14.0319V4.12764C14.0319 3.3585 13.4084 2.73499 12.6392 2.73499V2.73499C11.8701 2.73499 11.2466 3.3585 11.2466 4.12764V11.0909H4.28328C3.51414 11.0909 2.89062 11.7144 2.89062 12.4836V12.4836C2.89062 13.2527 3.51414 13.8763 4.28328 13.8763H11.2466V20.8395C11.2466 21.6087 11.8701 22.2322 12.6392 22.2322V22.2322C13.4084 22.2322 14.0319 21.6087 14.0319 20.8395V13.8763H20.9952C21.7643 13.8763 22.3878 13.2527 22.3878 12.4836V12.4836Z" fill="white"/>
</svg>
