<svg width="26" height="25" viewBox="0 0 26 25" fill="none" xmlns="http://www.w3.org/2000/svg">
<path d="M22.6159 12.4835C22.6159 11.7143 21.9924 11.0908 21.2232 11.0908H14.2599V4.12752C14.2599 3.35838 13.6364 2.73486 12.8673 2.73486V2.73486C12.0981 2.73486 11.4746 3.35838 11.4746 4.12752V11.0908H4.51131C3.74217 11.0908 3.11865 11.7143 3.11865 12.4835V12.4835C3.11865 13.2526 3.74217 13.8761 4.51131 13.8761H11.4746V20.8394C11.4746 21.6086 12.0981 22.2321 12.8673 22.2321V22.2321C13.6364 22.2321 14.2599 21.6086 14.2599 20.8394V13.8761H21.2232C21.9924 13.8761 22.6159 13.2526 22.6159 12.4835V12.4835Z" fill="white"/>
</svg>
