<svg width="40" height="35" viewBox="0 0 40 35" fill="none" xmlns="http://www.w3.org/2000/svg">
<path d="M17.007 3.33331C20.8036 3.33331 23.9249 6.31669 24.0833 10.0969H24.0463C24.0508 10.2068 24.0296 10.3162 23.9846 10.4166H24.2058C25.9299 10.4166 27.7353 11.6116 28.4592 14.4964L28.5378 14.8367L29.6271 23.6125C30.411 29.2098 27.3487 31.5636 23.1713 31.6633L22.8912 31.6666H11.1471C6.90168 31.6666 3.63027 30.1196 4.34956 23.9933L4.39861 23.6125L5.50041 14.8367C6.0437 11.7302 7.86761 10.5048 9.625 10.4213L9.81993 10.4166H9.93067C9.912 10.3109 9.912 10.2027 9.93067 10.0969C10.0891 6.31669 13.2104 3.33331 17.007 3.33331ZM12.8874 15.1331C12.1959 15.1331 11.6354 15.7101 11.6354 16.4218C11.6354 17.1335 12.1959 17.7105 12.8874 17.7105C13.5789 17.7105 14.1394 17.1335 14.1394 16.4218L14.1297 16.2602C14.0524 15.6247 13.5257 15.1331 12.8874 15.1331ZM21.0882 15.1331C20.3968 15.1331 19.8362 15.7101 19.8362 16.4218C19.8362 17.1335 20.3968 17.7105 21.0882 17.7105C21.7797 17.7105 22.3403 17.1335 22.3403 16.4218C22.3403 15.7101 21.7797 15.1331 21.0882 15.1331ZM16.9515 5.17836C14.2257 5.17836 12.0159 7.38048 12.0159 10.0969C12.0346 10.2027 12.0346 10.3109 12.0159 10.4166H21.9487C21.9093 10.3146 21.8884 10.2063 21.887 10.0969C21.887 7.38048 19.6773 5.17836 16.9515 5.17836Z" fill="white"/>
<ellipse cx="29.9913" cy="14.9556" rx="9.88194" ry="12.3235" fill="#E58411"/>
<path d="M29.8621 21.3768C32.2434 21.3768 33.6815 19.1164 33.6861 15.2241C33.6907 11.3607 32.2342 9.14642 29.8621 9.14642C27.4854 9.14642 26.0428 11.3549 26.0381 15.2241C26.0289 19.1049 27.4762 21.3711 29.8621 21.3768ZM29.8621 19.3067C28.7755 19.3067 28.0727 17.9459 28.0773 15.2241C28.0819 12.5428 28.7801 11.1935 29.8621 11.1935C30.9395 11.1935 31.6423 12.5428 31.6423 15.2241C31.6469 17.9459 30.9441 19.3067 29.8621 19.3067Z" fill="white"/>
</svg>
