<svg width="104" height="19" viewBox="0 0 104 19" fill="none" xmlns="http://www.w3.org/2000/svg">
<path d="M13.9727 10.9081C13.7754 11.0992 13.6848 11.3757 13.7297 11.6468L14.4068 15.394C14.4639 15.7116 14.3299 16.033 14.0641 16.2165C13.8036 16.407 13.4571 16.4298 13.173 16.2775L9.79981 14.5181C9.68252 14.4557 9.55228 14.4222 9.419 14.4184H9.21261C9.14101 14.429 9.07095 14.4519 9.00697 14.4869L5.63304 16.2546C5.46625 16.3384 5.27737 16.3681 5.0923 16.3384C4.64142 16.2531 4.34059 15.8236 4.41446 15.3704L5.0923 11.6232C5.13723 11.3498 5.0466 11.0718 4.84934 10.8776L2.09917 8.21195C1.86916 7.9888 1.78919 7.65369 1.8943 7.35132C1.99635 7.04972 2.25682 6.82962 2.57137 6.78011L6.35657 6.23098C6.64446 6.20128 6.89731 6.02611 7.02679 5.76716L8.69471 2.3475C8.73431 2.27134 8.78534 2.20127 8.84703 2.14186L8.91558 2.08855C8.95137 2.04895 8.9925 2.0162 9.0382 1.98954L9.12121 1.95907L9.25069 1.90576H9.57132C9.85769 1.93546 10.1098 2.10683 10.2415 2.36273L11.9316 5.76716C12.0534 6.01621 12.2903 6.1891 12.5637 6.23098L16.3489 6.78011C16.6688 6.82581 16.9361 7.04668 17.042 7.35132C17.1417 7.65673 17.0557 7.99184 16.8211 8.21195L13.9727 10.9081Z" fill="#F6B76F"/>
<path d="M35.2949 10.9091C35.0977 11.1002 35.007 11.3767 35.052 11.6478L35.7291 15.395C35.7862 15.7126 35.6521 16.034 35.3863 16.2175C35.1259 16.4079 34.7793 16.4308 34.4952 16.2785L31.1221 14.5191C31.0048 14.4567 30.8745 14.4232 30.7413 14.4193H30.5349C30.4633 14.43 30.3932 14.4529 30.3292 14.4879L26.9553 16.2556C26.7885 16.3394 26.5996 16.3691 26.4146 16.3394C25.9637 16.2541 25.6629 15.8245 25.7367 15.3714L26.4146 11.6242C26.4595 11.3508 26.3689 11.0728 26.1716 10.8786L23.4214 8.21293C23.1914 7.98977 23.1115 7.65466 23.2166 7.3523C23.3186 7.0507 23.5791 6.83059 23.8936 6.78109L27.6788 6.23196C27.9667 6.20226 28.2196 6.02709 28.3491 5.76814L30.017 2.34848C30.0566 2.27231 30.1076 2.20225 30.1693 2.14284L30.2378 2.08953C30.2736 2.04992 30.3148 2.01717 30.3605 1.99052L30.4435 1.96005L30.573 1.90674H30.8936C31.18 1.93644 31.432 2.10781 31.5638 2.36371L33.2538 5.76814C33.3757 6.01719 33.6125 6.19007 33.886 6.23196L37.6712 6.78109C37.991 6.82678 38.2584 7.04765 38.3642 7.3523C38.464 7.65771 38.3779 7.99282 38.1434 8.21293L35.2949 10.9091Z" fill="#F6B76F"/>
<path d="M56.6231 10.9091C56.4258 11.1002 56.3352 11.3767 56.3801 11.6478L57.0572 15.395C57.1143 15.7126 56.9803 16.034 56.7145 16.2175C56.454 16.4079 56.1075 16.4308 55.8234 16.2785L52.4502 14.5191C52.3329 14.4567 52.2027 14.4232 52.0694 14.4193H51.863C51.7914 14.43 51.7213 14.4529 51.6574 14.4879L48.2834 16.2556C48.1166 16.3394 47.9278 16.3691 47.7427 16.3394C47.2918 16.2541 46.991 15.8245 47.0649 15.3714L47.7427 11.6242C47.7876 11.3508 47.697 11.0728 47.4997 10.8786L44.7496 8.21293C44.5196 7.98977 44.4396 7.65466 44.5447 7.3523C44.6467 7.0507 44.9072 6.83059 45.2218 6.78109L49.007 6.23196C49.2949 6.20226 49.5477 6.02709 49.6772 5.76814L51.3451 2.34848C51.3847 2.27231 51.4357 2.20225 51.4974 2.14284L51.566 2.08953C51.6018 2.04992 51.6429 2.01717 51.6886 1.99052L51.7716 1.96005L51.9011 1.90674H52.2217C52.5081 1.93644 52.7602 2.10781 52.8919 2.36371L54.582 5.76814C54.7038 6.01719 54.9407 6.19007 55.2141 6.23196L58.9993 6.78109C59.3192 6.82678 59.5865 7.04765 59.6924 7.3523C59.7921 7.65771 59.7061 7.99282 59.4715 8.21293L56.6231 10.9091Z" fill="#F6B76F"/>
<path d="M77.9502 10.9091C77.753 11.1002 77.6623 11.3767 77.7073 11.6478L78.3843 15.395C78.4415 15.7126 78.3074 16.034 78.0416 16.2175C77.7811 16.4079 77.4346 16.4308 77.1505 16.2785L73.7774 14.5191C73.6601 14.4567 73.5298 14.4232 73.3965 14.4193H73.1901C73.1186 14.43 73.0485 14.4529 72.9845 14.4879L69.6106 16.2556C69.4438 16.3394 69.2549 16.3691 69.0698 16.3394C68.619 16.2541 68.3181 15.8245 68.392 15.3714L69.0698 11.6242C69.1148 11.3508 69.0241 11.0728 68.8269 10.8786L66.0767 8.21293C65.8467 7.98977 65.7667 7.65466 65.8718 7.3523C65.9739 7.0507 66.2344 6.83059 66.5489 6.78109L70.3341 6.23196C70.622 6.20226 70.8749 6.02709 71.0043 5.76814L72.6723 2.34848C72.7119 2.27231 72.7629 2.20225 72.8246 2.14284L72.8931 2.08953C72.9289 2.04992 72.97 2.01717 73.0157 1.99052L73.0988 1.96005L73.2282 1.90674H73.5489C73.8352 1.93644 74.0873 2.10781 74.2191 2.36371L75.9091 5.76814C76.031 6.01719 76.2678 6.19007 76.5412 6.23196L80.3264 6.78109C80.6463 6.82678 80.9136 7.04765 81.0195 7.3523C81.1193 7.65771 81.0332 7.99282 80.7986 8.21293L77.9502 10.9091Z" fill="#F6B76F"/>
<path d="M99.2725 10.9091C99.0752 11.1002 98.9846 11.3767 99.0295 11.6478L99.7066 15.395C99.7637 15.7126 99.6297 16.034 99.3639 16.2175C99.1034 16.4079 98.7569 16.4308 98.4728 16.2785L95.0996 14.5191C94.9823 14.4567 94.8521 14.4232 94.7188 14.4193H94.5124C94.4408 14.43 94.3708 14.4529 94.3068 14.4879L90.9328 16.2556C90.7661 16.3394 90.5772 16.3691 90.3921 16.3394C89.9412 16.2541 89.6404 15.8245 89.7143 15.3714L90.3921 11.6242C90.437 11.3508 90.3464 11.0728 90.1491 10.8786L87.399 8.21293C87.169 7.98977 87.089 7.65466 87.1941 7.3523C87.2962 7.0507 87.5566 6.83059 87.8712 6.78109L91.6564 6.23196C91.9443 6.20226 92.1971 6.02709 92.3266 5.76814L93.9945 2.34848C94.0341 2.27231 94.0852 2.20225 94.1468 2.14284L94.2154 2.08953C94.2512 2.04992 94.2923 2.01717 94.338 1.99052L94.421 1.96005L94.5505 1.90674H94.8711C95.1575 1.93644 95.4096 2.10781 95.5414 2.36371L97.2314 5.76814C97.3532 6.01719 97.5901 6.19007 97.8635 6.23196L101.649 6.78109C101.969 6.82678 102.236 7.04765 102.342 7.3523C102.442 7.65771 102.355 7.99282 102.121 8.21293L99.2725 10.9091Z" fill="#F6B76F"/>
</svg>
