<svg width="104" height="19" viewBox="0 0 104 19" fill="none" xmlns="http://www.w3.org/2000/svg">
<path d="M14.0566 10.9081C13.8593 11.0992 13.7687 11.3757 13.8136 11.6468L14.4907 15.394C14.5478 15.7116 14.4138 16.033 14.148 16.2165C13.8875 16.407 13.541 16.4298 13.2569 16.2775L9.88372 14.5181C9.76644 14.4557 9.6362 14.4222 9.50292 14.4184H9.29652C9.22493 14.429 9.15486 14.4519 9.09089 14.4869L5.71696 16.2546C5.55017 16.3384 5.36129 16.3681 5.17622 16.3384C4.72534 16.2531 4.42451 15.8236 4.49838 15.3704L5.17622 11.6232C5.22115 11.3498 5.13052 11.0718 4.93326 10.8776L2.18309 8.21195C1.95309 7.9888 1.87312 7.65369 1.97822 7.35132C2.08027 7.04972 2.34075 6.82962 2.65529 6.78011L6.44049 6.23098C6.72838 6.20128 6.98123 6.02611 7.1107 5.76716L8.77863 2.3475C8.81823 2.27134 8.86926 2.20127 8.93095 2.14186L8.99949 2.08855C9.03529 2.04895 9.07642 2.0162 9.12211 1.98954L9.20513 1.95907L9.3346 1.90576H9.65524C9.94161 1.93546 10.1937 2.10683 10.3255 2.36273L12.0155 5.76716C12.1373 6.01621 12.3742 6.1891 12.6476 6.23098L16.4328 6.78011C16.7527 6.82581 17.02 7.04668 17.1259 7.35132C17.2256 7.65673 17.1396 7.99184 16.905 8.21195L14.0566 10.9081Z" fill="#F6B76F"/>
<path d="M35.3808 10.9091C35.1835 11.1002 35.0929 11.3767 35.1378 11.6478L35.8149 15.395C35.872 15.7126 35.738 16.034 35.4722 16.2175C35.2117 16.4079 34.8652 16.4308 34.5811 16.2785L31.2079 14.5191C31.0907 14.4567 30.9604 14.4232 30.8271 14.4193H30.6207C30.5491 14.43 30.4791 14.4529 30.4151 14.4879L27.0412 16.2556C26.8744 16.3394 26.6855 16.3691 26.5004 16.3394C26.0496 16.2541 25.7487 15.8245 25.8226 15.3714L26.5004 11.6242C26.5454 11.3508 26.4547 11.0728 26.2575 10.8786L23.5073 8.21293C23.2773 7.98977 23.1973 7.65466 23.3024 7.3523C23.4045 7.0507 23.665 6.83059 23.9795 6.78109L27.7647 6.23196C28.0526 6.20226 28.3054 6.02709 28.4349 5.76814L30.1028 2.34848C30.1425 2.27231 30.1935 2.20225 30.2552 2.14284L30.3237 2.08953C30.3595 2.04992 30.4006 2.01717 30.4463 1.99052L30.5293 1.96005L30.6588 1.90674H30.9795C31.2658 1.93644 31.5179 2.10781 31.6497 2.36371L33.3397 5.76814C33.4615 6.01719 33.6984 6.19007 33.9718 6.23196L37.757 6.78109C38.0769 6.82678 38.3442 7.04765 38.4501 7.3523C38.5499 7.65771 38.4638 7.99282 38.2292 8.21293L35.3808 10.9091Z" fill="#F6B76F"/>
<path d="M56.7021 10.9091C56.5048 11.1002 56.4142 11.3767 56.4591 11.6478L57.1362 15.395C57.1933 15.7126 57.0593 16.034 56.7935 16.2175C56.533 16.4079 56.1865 16.4308 55.9024 16.2785L52.5292 14.5191C52.4119 14.4567 52.2817 14.4232 52.1484 14.4193H51.942C51.8704 14.43 51.8004 14.4529 51.7364 14.4879L48.3625 16.2556C48.1957 16.3394 48.0068 16.3691 47.8217 16.3394C47.3709 16.2541 47.07 15.8245 47.1439 15.3714L47.8217 11.6242C47.8667 11.3508 47.776 11.0728 47.5788 10.8786L44.8286 8.21293C44.5986 7.98977 44.5186 7.65466 44.6237 7.3523C44.7258 7.0507 44.9863 6.83059 45.3008 6.78109L49.086 6.23196C49.3739 6.20226 49.6267 6.02709 49.7562 5.76814L51.4241 2.34848C51.4637 2.27231 51.5148 2.20225 51.5765 2.14284L51.645 2.08953C51.6808 2.04992 51.7219 2.01717 51.7676 1.99052L51.8506 1.96005L51.9801 1.90674H52.3007C52.5871 1.93644 52.8392 2.10781 52.971 2.36371L54.661 5.76814C54.7828 6.01719 55.0197 6.19007 55.2931 6.23196L59.0783 6.78109C59.3982 6.82678 59.6655 7.04765 59.7714 7.3523C59.8711 7.65771 59.7851 7.99282 59.5505 8.21293L56.7021 10.9091Z" fill="#F6B76F"/>
<path d="M78.0303 10.9091C77.833 11.1002 77.7424 11.3767 77.7873 11.6478L78.4644 15.395C78.5215 15.7126 78.3875 16.034 78.1217 16.2175C77.8612 16.4079 77.5147 16.4308 77.2306 16.2785L73.8574 14.5191C73.7401 14.4567 73.6099 14.4232 73.4766 14.4193H73.2702C73.1986 14.43 73.1286 14.4529 73.0646 14.4879L69.6907 16.2556C69.5239 16.3394 69.335 16.3691 69.1499 16.3394C68.699 16.2541 68.3982 15.8245 68.4721 15.3714L69.1499 11.6242C69.1948 11.3508 69.1042 11.0728 68.907 10.8786L66.1568 8.21293C65.9268 7.98977 65.8468 7.65466 65.9519 7.3523C66.054 7.0507 66.3144 6.83059 66.629 6.78109L70.4142 6.23196C70.7021 6.20226 70.9549 6.02709 71.0844 5.76814L72.7523 2.34848C72.7919 2.27231 72.843 2.20225 72.9046 2.14284L72.9732 2.08953C73.009 2.04992 73.0501 2.01717 73.0958 1.99052L73.1788 1.96005L73.3083 1.90674H73.6289C73.9153 1.93644 74.1674 2.10781 74.2992 2.36371L75.9892 5.76814C76.111 6.01719 76.3479 6.19007 76.6213 6.23196L80.4065 6.78109C80.7264 6.82678 80.9937 7.04765 81.0996 7.3523C81.1993 7.65771 81.1133 7.99282 80.8787 8.21293L78.0303 10.9091Z" fill="#F6B76F"/>
<path d="M99.3583 10.9091C99.1611 11.1002 99.0704 11.3767 99.1154 11.6478L99.7925 15.395C99.8496 15.7126 99.7155 16.034 99.4497 16.2175C99.1893 16.4079 98.8427 16.4308 98.5586 16.2785L95.1855 14.5191C95.0682 14.4567 94.938 14.4232 94.8047 14.4193H94.5983C94.5267 14.43 94.4566 14.4529 94.3926 14.4879L91.0187 16.2556C90.8519 16.3394 90.663 16.3691 90.478 16.3394C90.0271 16.2541 89.7263 15.8245 89.8001 15.3714L90.478 11.6242C90.5229 11.3508 90.4323 11.0728 90.235 10.8786L87.4848 8.21293C87.2548 7.98977 87.1749 7.65466 87.28 7.3523C87.382 7.0507 87.6425 6.83059 87.957 6.78109L91.7422 6.23196C92.0301 6.20226 92.283 6.02709 92.4125 5.76814L94.0804 2.34848C94.12 2.27231 94.171 2.20225 94.2327 2.14284L94.3013 2.08953C94.337 2.04992 94.3782 2.01717 94.4239 1.99052L94.5069 1.96005L94.6364 1.90674H94.957C95.2434 1.93644 95.4955 2.10781 95.6272 2.36371L97.3172 5.76814C97.4391 6.01719 97.6759 6.19007 97.9494 6.23196L101.735 6.78109C102.054 6.82678 102.322 7.04765 102.428 7.3523C102.527 7.65771 102.441 7.99282 102.207 8.21293L99.3583 10.9091Z" fill="#F6B76F"/>
</svg>
