<svg width="25" height="27" viewBox="0 0 25 27" fill="none" xmlns="http://www.w3.org/2000/svg">
<path d="M11.177 2.11141L11.1787 2.10947L12.3785 0.76065C12.6887 0.411914 13.1592 0.414982 13.4616 0.758662L13.4616 0.758668L13.4635 0.760745L23.9695 12.5658C23.9695 12.5659 23.9695 12.5659 23.9696 12.5659C24.3099 12.9486 24.3074 13.585 23.9712 13.9589L23.9695 13.9609L13.4634 25.7722C13.1532 26.1209 12.6827 26.1179 12.3802 25.7742L12.3785 25.7722L11.1787 24.4234C10.8368 24.039 10.8441 23.3887 11.1928 23.0123C11.193 23.0121 11.1931 23.0119 11.1933 23.0118L17.7045 16.0379L18.4899 15.1967H17.339H1.80682C1.41761 15.1967 1.00977 14.8271 1.00977 14.2385V12.2943C1.00977 11.7057 1.41761 11.3361 1.80682 11.3361H17.339H18.4899L17.7045 10.4949L11.1922 3.51992L11.1915 3.51921C10.8392 3.14337 10.8318 2.49536 11.177 2.11141Z" fill="white" stroke="white"/>
</svg>
